<svg width="51" height="30" viewBox="0 0 51 30" fill="none" xmlns="http://www.w3.org/2000/svg">
<path d="M35.5353 1.35494L34.7435 2.1468C34.2193 2.671 34.2193 3.51863 34.7435 4.04282L44.1008 13.3445H2.18773C1.45163 13.3445 0.849365 13.9467 0.849365 14.6828V15.7981C0.849365 16.5342 1.45163 17.1365 2.18773 17.1365H44.112L34.7546 26.4381C34.2304 26.9623 34.2304 27.81 34.7546 28.3341L35.5465 29.126C36.0707 29.6502 36.9183 29.6502 37.4425 29.126L50.4358 16.1885C50.96 15.6643 50.96 14.8167 50.4358 14.2925L37.4313 1.35494C36.9071 0.830744 36.0595 0.830744 35.5353 1.35494Z" fill="black"/>
</svg>
