<svg width="51" height="30" viewBox="0 0 51 30" fill="none" xmlns="http://www.w3.org/2000/svg">
<path d="M34.9664 0.835171L34.1733 1.62829C33.6483 2.15331 33.6483 3.00228 34.1733 3.5273L43.5454 12.8436H1.56618C0.828922 12.8436 0.225708 13.4468 0.225708 14.1841V15.3012C0.225708 16.0384 0.828922 16.6416 1.56618 16.6416H43.5566L34.1844 25.9579C33.6594 26.483 33.6594 27.3319 34.1844 27.857L34.9776 28.6501C35.5026 29.1751 36.3515 29.1751 36.8766 28.6501L49.8904 15.6921C50.4154 15.1671 50.4154 14.3181 49.8904 13.7931L36.8654 0.835171C36.3404 0.310151 35.4914 0.310151 34.9664 0.835171Z" fill="#0033A1"/>
</svg>
