<svg width="51" height="30" viewBox="0 0 51 30" fill="none" xmlns="http://www.w3.org/2000/svg">
<path d="M34.8299 1.35494L34.038 2.1468C33.5138 2.671 33.5138 3.51863 34.038 4.04282L43.3954 13.3445H1.48229C0.746185 13.3445 0.143921 13.9467 0.143921 14.6828V15.7981C0.143921 16.5342 0.746185 17.1365 1.48229 17.1365H43.4066L34.0492 26.4381C33.525 26.9623 33.525 27.81 34.0492 28.3341L34.841 29.126C35.3652 29.6502 36.2128 29.6502 36.737 29.126L49.7303 16.1885C50.2545 15.6643 50.2545 14.8167 49.7303 14.2925L36.7259 1.35494C36.2017 0.830744 35.3541 0.830744 34.8299 1.35494Z" fill="white"/>
</svg>
