<svg width="28" height="28" viewBox="0 0 28 28" fill="none" xmlns="http://www.w3.org/2000/svg">
<path d="M23.2635 23.2659H19.3069V17.066C19.3069 15.5876 19.2768 13.685 17.2451 13.685C15.1822 13.685 14.8671 15.2937 14.8671 16.9569V23.2659H10.9105V10.5166H14.7113V12.2544H14.7625C15.2935 11.2525 16.5849 10.1949 18.5142 10.1949C22.5232 10.1949 23.2646 12.8333 23.2646 16.2678V23.2659H23.2635ZM6.44183 8.77209C5.16823 8.77209 4.14513 7.74119 4.14513 6.47316C4.14513 5.20625 5.16935 4.17647 6.44183 4.17647C7.71097 4.17647 8.73964 5.20625 8.73964 6.47316C8.73964 7.74119 7.70985 8.77209 6.44183 8.77209ZM8.42569 23.2659H4.45796V10.5166H8.42569V23.2659ZM25.2429 0.49707H2.47187C1.38196 0.49707 0.500244 1.35875 0.500244 2.42193V25.291C0.500244 26.3553 1.38196 27.2158 2.47187 27.2158H25.2396C26.3284 27.2158 27.219 26.3553 27.219 25.291V2.42193C27.219 1.35875 26.3284 0.49707 25.2396 0.49707H25.2429Z" fill="white"/>
</svg>
