<svg width="210" height="49" viewBox="0 0 210 49" fill="none" xmlns="http://www.w3.org/2000/svg">
<path d="M48.9 41.3L39.7 25.4L37.7 21.9L28.5 6L26.5 2.5L24.5 6L15.3 21.9L13.3 25.4L4 41.3L2 44.8H6H46.8H50.8L48.9 41.3ZM41.9 37.3L30.5 30.7L36.2 27.4L41.9 37.3ZM34.2 23.9L28.5 27.2V14.1L34.2 23.9ZM24.4 14.1V27.2L18.7 23.9L24.4 14.1ZM16.7 27.4L22.4 30.7L11 37.3L16.7 27.4ZM13.1 40.8L26.5 33L39.9 40.7H13.1V40.8Z" fill="white"/>
<path d="M63.0183 12.6566H78.0175V16.3464H72.5693V31.7585H68.4798V16.3464H63.0183V12.6566Z" fill="white"/>
<path d="M89.9584 17.7584C88.7684 18.9662 88.1735 20.4537 88.1735 22.2209C88.1735 23.9792 88.7684 25.4623 89.9584 26.67C91.1484 27.8778 92.5959 28.4816 94.301 28.4816C96.0149 28.4816 97.4669 27.8778 98.6569 26.67C99.8469 25.4623 100.442 23.9792 100.442 22.2209C100.442 20.4537 99.8469 18.9662 98.6569 17.7584C97.4669 16.5418 96.0149 15.9335 94.301 15.9335C92.5959 15.9335 91.1484 16.5418 89.9584 17.7584ZM86.9346 29.2542C84.9365 27.3005 83.9375 24.9516 83.9375 22.2076C83.9375 19.4635 84.9365 17.119 86.9346 15.1742C88.9416 13.2294 91.3971 12.257 94.301 12.257C97.2138 12.257 99.6693 13.2294 101.667 15.1742C103.674 17.119 104.678 19.4635 104.678 22.2076C104.678 24.9516 103.674 27.3005 101.667 29.2542C99.6693 31.1991 97.2138 32.1715 94.301 32.1715C91.3971 32.1715 88.9416 31.1991 86.9346 29.2542Z" fill="white"/>
<path d="M111.765 31.7585V12.6566H120.224C122.115 12.6566 123.678 13.2649 124.913 14.4815C126.156 15.6893 126.777 17.1723 126.777 18.9307C126.777 19.6944 126.658 20.4093 126.418 21.0753C126.178 21.7413 125.894 22.2786 125.565 22.6871C125.246 23.0956 124.917 23.4464 124.58 23.7395C124.242 24.0325 123.953 24.2323 123.714 24.3389L123.367 24.5254L127.457 31.7585H123.088L119.411 25.0715H115.868V31.7585H111.765ZM122.688 18.9307C122.688 18.1847 122.439 17.5675 121.942 17.0791C121.454 16.5906 120.836 16.3464 120.09 16.3464H115.868V21.395H120.09C120.836 21.395 121.454 21.1597 121.942 20.689C122.439 20.2095 122.688 19.6233 122.688 18.9307Z" fill="white"/>
<path d="M135.499 31.7585V12.6566H139.602V31.7585H135.499Z" fill="white"/>
<path d="M161.828 12.6566H165.917V31.7585H162.374L152.969 19.6233V31.7585H148.867V12.6566H152.423L161.828 24.8051V12.6566Z" fill="white"/>
<path d="M174.647 31.7585V12.6566H178.75V31.7585H174.647ZM187.342 12.6566H202.341V16.3464H196.893V31.7585H192.803V16.3464H187.342V12.6566Z" fill="white"/>
</svg>
