<svg width="49" height="43" viewBox="0 0 49 43" fill="none" xmlns="http://www.w3.org/2000/svg">
<path d="M46.9 39.3707L37.7 23.4529L35.7 19.949L26.5 4.03125L24.5 0.527344L22.5 4.03125L13.3 19.949L11.3 23.4529L2 39.3707L0 42.8746H4H44.8H48.8L46.9 39.3707ZM39.9 35.3662L28.5 28.7588L34.2 25.4551L39.9 35.3662ZM32.2 21.9512L26.5 25.2549V12.1403L32.2 21.9512ZM22.4 12.1403V25.2549L16.7 21.9512L22.4 12.1403ZM14.7 25.4551L20.4 28.7588L9 35.3662L14.7 25.4551ZM11.1 38.8701L24.5 31.0614L37.9 38.77H11.1V38.8701Z" fill="white"/>
</svg>
