<svg width="757" height="468" viewBox="0 0 757 468" fill="none" xmlns="http://www.w3.org/2000/svg">
<g opacity="0.3">
<path d="M505.157 357.765L1039.06 31.3289L1216.23 274.811L207.49 1008.84L30.315 765.363L505.157 357.765Z" fill="#222222"/>
<path d="M534.686 398.344L1098.12 112.488L1216.23 274.81L207.489 1008.84L89.3727 846.522L534.686 398.344Z" fill="#444444"/>
<path d="M564.215 438.924L1157.17 193.648L1216.23 274.809L207.489 1008.84L148.431 927.682L564.215 438.924Z" fill="#666666"/>
<path d="M207.488 1008.84L593.743 479.506L1216.23 274.81L207.488 1008.84Z" fill="#888888"/>
<path d="M409.04 862.184L623.075 520.233L1014.29 421.763L409.04 862.184Z" fill="#AAAAAA"/>
<path d="M879.82 519.608L543.53 764.316L652.616 560.802L879.82 519.608Z" fill="#CCCCCC"/>
</g>
</svg>
